<?xml version="1.0" encoding="UTF-8" standalone="no"?>
<!DOCTYPE svg PUBLIC "-//W3C//DTD SVG 1.1//EN" "http://www.w3.org/Graphics/SVG/1.1/DTD/svg11.dtd">
<svg width="100%" height="100%" viewBox="0 0 1000 1000" version="1.1" xmlns="http://www.w3.org/2000/svg" xmlns:xlink="http://www.w3.org/1999/xlink" xml:space="preserve" xmlns:serif="http://www.serif.com/" style="fill-rule:evenodd;clip-rule:evenodd;stroke-linecap:round;stroke-linejoin:round;stroke-miterlimit:10;">
    <g>
        <g>
            <path d="M500,115C712.487,115 885,287.513 885,500C885,712.487 712.487,885 500,885C287.513,885 115,712.487 115,500C115,287.513 287.513,115 500,115Z" style="fill:none;stroke:url(#_Linear1);stroke-width:15px;"/>
            <path d="M214.121,391.043C246.056,302.486 304.952,242.315 392.228,212.025C409.102,251.715 460.374,284.162 500,282.66C545.235,280.946 588.739,251.196 607.444,212.025C743.022,258.369 795.255,398.059 808.315,500C821.998,606.808 705.451,797.27 515.582,805.884C647.933,750.789 586.039,625.759 500,622.947C399.792,619.672 358.2,761.98 486.44,805.884C358.512,797.317 265.065,735.558 214.121,608.237C249.703,583.952 280.613,549.114 281.793,500C282.995,449.929 257.95,411.694 214.121,391.043Z" style="fill:none;stroke:url(#_Linear2);stroke-width:15px;"/>
            <path d="M447.888,251.118C450.096,251.118 451.888,252.91 451.888,255.118C451.888,257.325 450.096,259.118 447.888,259.118C445.68,259.118 443.888,257.325 443.888,255.118C443.888,252.91 445.68,251.118 447.888,251.118Z" style="fill:url(#_Linear3);"/>
            <path d="M500,265.047C502.208,265.047 504,266.84 504,269.047C504,271.255 502.208,273.047 500,273.047C497.792,273.047 496,271.255 496,269.047C496,266.84 497.792,265.047 500,265.047Z" style="fill:url(#_Linear4);"/>
            <path d="M552.165,251.118C554.372,251.118 556.165,252.91 556.165,255.118C556.165,257.325 554.372,259.118 552.165,259.118C549.957,259.118 548.165,257.325 548.165,255.118C548.165,252.91 549.957,251.118 552.165,251.118Z" style="fill:url(#_Linear5);"/>
            <path d="M283.153,693.737C296.099,693.737 306.609,704.155 306.609,716.987C306.609,729.819 296.099,740.237 283.153,740.237C270.207,740.237 259.697,729.819 259.697,716.987C259.697,704.155 270.207,693.737 283.153,693.737Z" style="fill:none;stroke:url(#_Linear6);stroke-width:2.5px;"/>
            <path d="M825.303,476.75C838.248,476.75 848.759,487.168 848.759,500C848.759,512.832 838.248,523.25 825.303,523.25C812.357,523.25 801.846,512.832 801.846,500C801.846,487.168 812.357,476.75 825.303,476.75Z" style="fill:none;stroke:url(#_Linear7);stroke-width:2.5px;"/>
            <path d="M710.326,408.13C760.937,408.13 802.026,449.329 802.026,500.075C802.026,550.821 760.937,592.021 710.326,592.021C659.715,592.021 618.626,550.821 618.626,500.075C618.626,449.329 659.715,408.13 710.326,408.13Z" style="fill:none;stroke:url(#_Linear8);stroke-width:2.5px;"/>
            <path d="M259.697,565.088L419.346,665.291" style="fill:url(#_Linear9);stroke:url(#_Linear10);stroke-width:2.5px;"/>
            <path d="M267.687,439.279L717.035,182.041" style="fill:url(#_Linear11);stroke:url(#_Linear12);stroke-width:2.5px;"/>
            <path d="M275.14,535.879L825.303,705.894" style="fill:url(#_Linear13);stroke:url(#_Linear14);stroke-width:2.5px;"/>
        </g>
    </g>
    <defs>
        <linearGradient id="_Linear1" x1="0" y1="0" x2="1" y2="0" gradientUnits="userSpaceOnUse" gradientTransform="matrix(770,770,-770,770,115,115)"><stop offset="0" style="stop-color:rgb(42,250,223);stop-opacity:1"/><stop offset="1" style="stop-color:rgb(76,131,255);stop-opacity:1"/></linearGradient>
        <linearGradient id="_Linear2" x1="0" y1="0" x2="1" y2="0" gradientUnits="userSpaceOnUse" gradientTransform="matrix(769.984,769.984,-769.984,769.984,115.011,115.006)"><stop offset="0" style="stop-color:rgb(42,250,223);stop-opacity:1"/><stop offset="1" style="stop-color:rgb(76,131,255);stop-opacity:1"/></linearGradient>
        <linearGradient id="_Linear3" x1="0" y1="0" x2="1" y2="0" gradientUnits="userSpaceOnUse" gradientTransform="matrix(769.996,769.996,-769.996,769.996,115.002,115.003)"><stop offset="0" style="stop-color:rgb(42,250,223);stop-opacity:1"/><stop offset="1" style="stop-color:rgb(76,131,255);stop-opacity:1"/></linearGradient>
        <linearGradient id="_Linear4" x1="0" y1="0" x2="1" y2="0" gradientUnits="userSpaceOnUse" gradientTransform="matrix(769.996,769.996,-769.996,769.996,115.002,115.001)"><stop offset="0" style="stop-color:rgb(42,250,223);stop-opacity:1"/><stop offset="1" style="stop-color:rgb(76,131,255);stop-opacity:1"/></linearGradient>
        <linearGradient id="_Linear5" x1="0" y1="0" x2="1" y2="0" gradientUnits="userSpaceOnUse" gradientTransform="matrix(770.002,770.002,-770.002,770.002,114.999,115)"><stop offset="0" style="stop-color:rgb(42,250,223);stop-opacity:1"/><stop offset="1" style="stop-color:rgb(76,131,255);stop-opacity:1"/></linearGradient>
        <linearGradient id="_Linear6" x1="0" y1="0" x2="1" y2="0" gradientUnits="userSpaceOnUse" gradientTransform="matrix(770,770,-770,770,115,115)"><stop offset="0" style="stop-color:rgb(42,250,223);stop-opacity:1"/><stop offset="1" style="stop-color:rgb(76,131,255);stop-opacity:1"/></linearGradient>
        <linearGradient id="_Linear7" x1="0" y1="0" x2="1" y2="0" gradientUnits="userSpaceOnUse" gradientTransform="matrix(770.001,770.001,-770.001,770.001,114.999,115)"><stop offset="0" style="stop-color:rgb(42,250,223);stop-opacity:1"/><stop offset="1" style="stop-color:rgb(76,131,255);stop-opacity:1"/></linearGradient>
        <linearGradient id="_Linear8" x1="0" y1="0" x2="1" y2="0" gradientUnits="userSpaceOnUse" gradientTransform="matrix(770,770,-770,770,115,115)"><stop offset="0" style="stop-color:rgb(42,250,223);stop-opacity:1"/><stop offset="1" style="stop-color:rgb(76,131,255);stop-opacity:1"/></linearGradient>
        <linearGradient id="_Linear9" x1="0" y1="0" x2="1" y2="0" gradientUnits="userSpaceOnUse" gradientTransform="matrix(769.883,769.883,-769.883,769.883,115.043,115.076)"><stop offset="0" style="stop-color:rgb(42,250,223);stop-opacity:1"/><stop offset="1" style="stop-color:rgb(76,131,255);stop-opacity:1"/></linearGradient>
        <linearGradient id="_Linear10" x1="0" y1="0" x2="1" y2="0" gradientUnits="userSpaceOnUse" gradientTransform="matrix(769.883,769.883,-769.883,769.883,115.043,115.076)"><stop offset="0" style="stop-color:rgb(42,250,223);stop-opacity:1"/><stop offset="1" style="stop-color:rgb(76,131,255);stop-opacity:1"/></linearGradient>
        <linearGradient id="_Linear11" x1="0" y1="0" x2="1" y2="0" gradientUnits="userSpaceOnUse" gradientTransform="matrix(769.94,769.94,-769.94,769.94,115.03,115.015)"><stop offset="0" style="stop-color:rgb(42,250,223);stop-opacity:1"/><stop offset="1" style="stop-color:rgb(76,131,255);stop-opacity:1"/></linearGradient>
        <linearGradient id="_Linear12" x1="0" y1="0" x2="1" y2="0" gradientUnits="userSpaceOnUse" gradientTransform="matrix(769.94,769.94,-769.94,769.94,115.03,115.015)"><stop offset="0" style="stop-color:rgb(42,250,223);stop-opacity:1"/><stop offset="1" style="stop-color:rgb(76,131,255);stop-opacity:1"/></linearGradient>
        <linearGradient id="_Linear13" x1="0" y1="0" x2="1" y2="0" gradientUnits="userSpaceOnUse" gradientTransform="matrix(769.952,769.952,-769.952,769.952,115.025,115.032)"><stop offset="0" style="stop-color:rgb(42,250,223);stop-opacity:1"/><stop offset="1" style="stop-color:rgb(76,131,255);stop-opacity:1"/></linearGradient>
        <linearGradient id="_Linear14" x1="0" y1="0" x2="1" y2="0" gradientUnits="userSpaceOnUse" gradientTransform="matrix(769.952,769.952,-769.952,769.952,115.025,115.032)"><stop offset="0" style="stop-color:rgb(42,250,223);stop-opacity:1"/><stop offset="1" style="stop-color:rgb(76,131,255);stop-opacity:1"/></linearGradient>
    </defs>
</svg>
